<?xml version="1.0" encoding="utf-8"?>
<!-- Generator: Adobe Illustrator 25.2.1, SVG Export Plug-In . SVG Version: 6.00 Build 0)  -->
<svg version="1.1" id="Layer_2" xmlns="http://www.w3.org/2000/svg" xmlns:xlink="http://www.w3.org/1999/xlink" x="0px" y="0px"
	 viewBox="0 0 503 146.79" style="enable-background:new 0 0 503 146.79;" xml:space="preserve">
<style type="text/css">
	.st0{fill:#00ABCF;}
	.st1{fill:#FFFFFF;}
	.st2{fill:#231F20;}
	.st3{fill:url(#SVGID_1_);}
	.st4{opacity:0.7;fill:url(#SVGID_2_);}
	.st5{fill:url(#SVGID_3_);}
	.st6{opacity:0.7;fill:url(#SVGID_4_);}
	.st7{fill:url(#SVGID_5_);}
	.st8{opacity:0.7;fill:url(#SVGID_6_);}
	.st9{fill:url(#SVGID_7_);}
	.st10{opacity:0.7;fill:url(#SVGID_8_);}
	.st11{fill:url(#SVGID_9_);}
	.st12{opacity:0.7;fill:url(#SVGID_10_);}
	.st13{fill:url(#SVGID_11_);}
	.st14{opacity:0.7;fill:url(#SVGID_12_);}
	.st15{fill:url(#SVGID_13_);}
	.st16{opacity:0.7;fill:url(#SVGID_14_);}
	.st17{fill:url(#SVGID_15_);}
	.st18{opacity:0.7;fill:url(#SVGID_16_);}
	.st19{fill:url(#SVGID_17_);}
	.st20{opacity:0.7;fill:url(#SVGID_18_);}
</style>
<path class="st0" d="M129.55,115.06h-15.36V82.41l0,0L99.2,115.06H85.21L69.85,82.41l0,0v32.65H54.59V72.44h25.62l12.17,26.77
	l10.9-26.77h26.26V115.06z"/>
<path class="st0" d="M224.91,72.69v24.58c0,0,0.03,0.13,0.03,3.09c0,2.96-0.11,5.18-4.57,5.18h-3.19c-4.56,0-3.81-3.17-4.12-7.61
	l0,0v-3.1h-16.37v2.49v0.48c0,14.08,2.96,17.19,19.07,17.19h8.32c12.1,0,17.26-2.91,17.26-17.18h0.01V72.69H224.91z"/>
<path class="st0" d="M191.22,89.84v3.92v3.92c0,10.52-4.56,14.5-12.91,16.21c-5.07,1.04-8.22,1.25-9.17,1.38l-6.11,0.22l-6.12-0.22
	c-0.96-0.13-4.1-0.34-9.17-1.38c-8.34-1.71-12.91-5.69-12.91-16.21v-3.92v-3.92c0-10.52,4.56-14.51,12.91-16.21
	c5.07-1.03,8.22-1.24,9.17-1.37l6.12-0.22l6.11,0.22c0.96,0.13,4.1,0.34,9.17,1.37C186.65,75.33,191.22,79.32,191.22,89.84z
	 M169.5,82.83c-2.15-0.56-3.48-0.68-3.89-0.75l-2.59-0.12l-2.59,0.12c-0.41,0.07-1.74,0.19-3.89,0.75
	c-3.54,0.92-5.47,3.09-5.47,8.79v2.13v2.13c0,5.71,1.93,7.87,5.47,8.79c2.15,0.56,3.48,0.67,3.89,0.75l2.59,0.12l2.59-0.12
	c0.41-0.07,1.74-0.18,3.89-0.75c3.54-0.93,5.47-3.09,5.47-8.79v-2.13v-2.13C174.97,85.92,173.04,83.76,169.5,82.83z"/>
<path class="st0" d="M303.25,89.84v3.92v3.92c0,10.52-4.56,14.5-12.91,16.21c-5.07,1.04-8.22,1.25-9.17,1.38l-6.11,0.22l-6.12-0.22
	c-0.95-0.13-4.1-0.34-9.17-1.38c-8.34-1.71-12.91-5.69-12.91-16.21v-3.92v-3.92c0-10.52,4.56-14.51,12.91-16.21
	c5.07-1.03,8.22-1.24,9.17-1.37l6.12-0.22l6.11,0.22c0.95,0.13,4.11,0.34,9.17,1.37C298.69,75.33,303.25,79.32,303.25,89.84z
	 M281.54,82.83c-2.15-0.56-3.49-0.68-3.89-0.75l-2.59-0.12l-2.59,0.12c-0.41,0.07-1.74,0.19-3.89,0.75
	c-3.54,0.92-5.47,3.09-5.47,8.79v2.13v2.13c0,5.71,1.93,7.87,5.47,8.79c2.15,0.56,3.48,0.67,3.89,0.75l2.59,0.12l2.59-0.12
	c0.4-0.07,1.74-0.18,3.89-0.75c3.54-0.93,5.47-3.09,5.47-8.79v-2.13v-2.13C287.01,85.92,285.07,83.76,281.54,82.83z"/>
<g>
	<path class="st0" d="M108.86,64.49h-8.72l0.28-27.88L85.77,64.49h-8.02L62.89,36.76l0.42,27.73h-8.72V31.41h14.37l12.56,24.55h0.28
		l12.42-24.55h14.65V64.49z"/>
	<path class="st0" d="M139.97,58.14l-2.86,6.35h-9.28l15.49-33.09h13.11l15.77,33.09h-9.07l-3-6.35H139.97z M150.01,36.27
		l-7.95,17.16h16.04L150.01,36.27z"/>
	<path class="st0" d="M191.16,31.41h22.6c5.35,0.03,9.21,0.77,11.58,2.21c2.37,1.44,3.55,4.12,3.55,8.06c0,0.4,0,0.81,0,1.24
		c0,0.43-0.05,0.86-0.14,1.29c-0.09,0.93-0.33,1.84-0.73,2.73c-0.4,0.89-1.08,1.64-2.06,2.23c-0.56,0.33-1.17,0.6-1.85,0.79
		c-0.67,0.2-1.36,0.36-2.06,0.5c-0.28,0.03-0.55,0.07-0.8,0.13c-0.26,0.05-0.53,0.09-0.8,0.12v0.15c2.74,0.17,4.74,0.79,6,1.88
		c1.25,1.09,1.88,2.61,1.88,4.56v7.19h-9v-6l0.07-0.74c-0.05-1.65-0.71-2.78-1.99-3.37c-1.28-0.59-2.96-0.89-5.06-0.89h-12.56v11.01
		h-8.65V31.41z M212.36,48.12c2.74,0.03,4.66-0.34,5.75-1.11c1.09-0.78,1.64-2.09,1.64-3.94c0-2.05-0.32-3.58-0.94-4.59
		c-0.63-1.01-2.59-1.51-5.89-1.51h-13.11v11.16H212.36z"/>
	<path class="st0" d="M257.24,44.9h4.19l15.49-13.49h10.95l-18.83,16.12l20.79,16.96h-11.3l-17.09-14.19h-4.19v14.19h-8.93V31.41
		h8.93V44.9z"/>
	<path class="st0" d="M315.47,45.3h21.83v4.61h-21.83v9.38h23.16v5.21h-31.8V31.41h31.6v5.26h-22.95V45.3z"/>
	<path class="st0" d="M379.78,64.49h-9V37.01h-13.46v-5.61h36.14v5.61h-13.67V64.49z"/>
	<path class="st0" d="M438.78,41.08c0-1.92-0.56-3.21-1.67-3.87c-1.12-0.66-3.05-0.99-5.79-0.99h-2.44
		c-0.42,0.03-0.88,0.05-1.36,0.05c-0.49,0-0.96,0.02-1.43,0.05c-0.74,0.03-1.49,0.11-2.23,0.22c-0.74,0.11-1.39,0.29-1.95,0.51
		c-0.56,0.26-0.98,0.6-1.25,1.03c-0.28,0.43-0.49,0.88-0.63,1.37c0,0.2-0.01,0.39-0.04,0.56c-0.02,0.18-0.03,0.35-0.03,0.52
		c0,1.65,0.46,2.79,1.36,3.4c0.9,0.61,2.57,0.97,4.99,1.07c0.23,0,0.46,0.01,0.67,0.03c0.21,0.02,0.43,0.02,0.66,0.02
		c0.6,0.03,1.19,0.06,1.78,0.08c0.58,0.02,1.15,0.02,1.71,0.02c4.56,0.1,8.58,0.56,12.07,1.37c3.49,0.81,5.23,3.42,5.23,7.83
		c0,2.82-0.63,5.13-1.88,6.94c-1.26,1.81-4.16,2.88-8.72,3.21c-0.74,0.03-1.48,0.06-2.2,0.07c-0.72,0.02-1.43,0.04-2.13,0.08
		c-0.75,0.03-1.48,0.05-2.2,0.05c-0.72,0-1.45,0-2.2,0c-5.35,0-9.71-0.42-13.08-1.27c-3.37-0.85-5.06-3.56-5.06-8.14
		c0-0.1,0-0.21,0-0.32c0-0.12,0.02-0.22,0.07-0.32c0-0.1,0-0.21,0-0.32c0-0.12,0-0.22,0-0.32l8.44-0.05c0,1.56,0.29,2.89,0.87,3.98
		c0.58,1.1,2.17,1.66,4.78,1.69c1.12,0.04,2.24,0.05,3.35,0.05c1.12,0,2.23,0,3.35,0c2.74,0,4.75-0.29,6-0.87
		c1.26-0.58,1.88-1.88,1.88-3.91c0-2.19-0.8-3.48-2.41-3.88c-1.6-0.4-3.66-0.61-6.17-0.65c-0.47,0-0.93,0-1.39,0
		c-0.47,0-0.96-0.01-1.47-0.05c-0.23,0-0.48-0.01-0.73-0.03c-0.25-0.02-0.5-0.04-0.73-0.08c-4.93-0.23-8.78-0.82-11.55-1.76
		c-2.77-0.94-4.15-3.6-4.15-7.96c0-2.78,0.83-4.91,2.51-6.4c1.67-1.49,4.53-2.35,8.58-2.58c1.21-0.07,2.43-0.12,3.66-0.15
		c1.23-0.03,2.45-0.05,3.66-0.05c4.79,0,8.95,0.36,12.49,1.09c3.53,0.73,5.3,3.21,5.3,7.44v1.24H438.78z"/>
</g>
<g>
	<g>
		<path class="st2" d="M309.07,93.86c0-11.75,9.52-21.27,21.27-21.27c11.75,0,21.27,9.53,21.27,21.27
			c0,11.75-9.52,21.27-21.27,21.27C318.6,115.13,309.07,105.61,309.07,93.86z"/>
		<radialGradient id="SVGID_1_" cx="330.4603" cy="110.63" r="22.6881" gradientUnits="userSpaceOnUse">
			<stop  offset="0" style="stop-color:#FDCF9D"/>
			<stop  offset="0.2071" style="stop-color:#F79072"/>
			<stop  offset="0.4319" style="stop-color:#F15248"/>
			<stop  offset="0.5968" style="stop-color:#ED2B2E"/>
			<stop  offset="0.6828" style="stop-color:#EC1C24"/>
		</radialGradient>
		<path class="st3" d="M309.86,93.86c0-11.31,9.17-20.49,20.49-20.49c11.32,0,20.49,9.17,20.49,20.49
			c0,11.32-9.17,20.49-20.49,20.49C319.03,114.35,309.86,105.18,309.86,93.86z"/>
	</g>
	<linearGradient id="SVGID_2_" gradientUnits="userSpaceOnUse" x1="330.3447" y1="90.9837" x2="330.3447" y2="76.2632">
		<stop  offset="0" style="stop-color:#FFFFFF;stop-opacity:0"/>
		<stop  offset="1" style="stop-color:#FFFFFF"/>
	</linearGradient>
	<path class="st4" d="M313.57,89.04c0-7.88,7.51-14.27,16.78-14.27c9.26,0,16.78,6.39,16.78,14.27c0,7.88-7.51,14.27-16.78,14.27
		C321.08,103.31,313.57,96.92,313.57,89.04z"/>
</g>
<g>
	<g>
		<path class="st2" d="M357.49,93.75c0-11.75,9.52-21.27,21.27-21.27c11.75,0,21.27,9.53,21.27,21.27
			c0,11.75-9.52,21.27-21.27,21.27C367.01,115.03,357.49,105.5,357.49,93.75z"/>
		<radialGradient id="SVGID_3_" cx="378.8781" cy="110.5206" r="22.6881" gradientUnits="userSpaceOnUse">
			<stop  offset="0" style="stop-color:#FFE4CA"/>
			<stop  offset="0.191" style="stop-color:#FCC992"/>
			<stop  offset="0.4234" style="stop-color:#F9AC54"/>
			<stop  offset="0.5939" style="stop-color:#F7992D"/>
			<stop  offset="0.6828" style="stop-color:#F6921E"/>
		</radialGradient>
		<path class="st5" d="M358.27,93.75c0-11.31,9.17-20.49,20.49-20.49c11.32,0,20.49,9.17,20.49,20.49
			c0,11.32-9.17,20.49-20.49,20.49C367.45,114.24,358.27,105.07,358.27,93.75z"/>
	</g>
	<linearGradient id="SVGID_4_" gradientUnits="userSpaceOnUse" x1="378.7627" y1="90.8743" x2="378.7627" y2="76.1538">
		<stop  offset="0" style="stop-color:#FFFFFF;stop-opacity:0"/>
		<stop  offset="1" style="stop-color:#FFFFFF"/>
	</linearGradient>
	<path class="st6" d="M361.99,88.93c0-7.88,7.51-14.27,16.78-14.27c9.26,0,16.78,6.39,16.78,14.27c0,7.88-7.51,14.27-16.78,14.27
		C369.5,103.2,361.99,96.81,361.99,88.93z"/>
</g>
<g>
	<g>
		<path class="st2" d="M405.87,93.75c0-11.75,9.52-21.27,21.27-21.27c11.75,0,21.27,9.53,21.27,21.27
			c0,11.75-9.52,21.27-21.27,21.27C415.39,115.03,405.87,105.5,405.87,93.75z"/>
		<radialGradient id="SVGID_5_" cx="427.2542" cy="110.5206" r="22.6881" gradientUnits="userSpaceOnUse">
			<stop  offset="0" style="stop-color:#CEE4AE"/>
			<stop  offset="9.669597e-03" style="stop-color:#CAE2AC"/>
			<stop  offset="0.2573" style="stop-color:#75BD83"/>
			<stop  offset="0.4594" style="stop-color:#36A165"/>
			<stop  offset="0.6063" style="stop-color:#0F9052"/>
			<stop  offset="0.6828" style="stop-color:#00894B"/>
		</radialGradient>
		<path class="st7" d="M406.65,93.75c0-11.31,9.17-20.49,20.49-20.49c11.32,0,20.49,9.17,20.49,20.49
			c0,11.32-9.17,20.49-20.49,20.49C415.82,114.24,406.65,105.07,406.65,93.75z"/>
	</g>
	<linearGradient id="SVGID_6_" gradientUnits="userSpaceOnUse" x1="427.1386" y1="90.8743" x2="427.1386" y2="76.1538">
		<stop  offset="0" style="stop-color:#FFFFFF;stop-opacity:0"/>
		<stop  offset="1" style="stop-color:#FFFFFF"/>
	</linearGradient>
	<path class="st8" d="M410.36,88.93c0-7.88,7.51-14.27,16.78-14.27c9.26,0,16.78,6.39,16.78,14.27c0,7.88-7.51,14.27-16.78,14.27
		C417.87,103.2,410.36,96.81,410.36,88.93z"/>
</g>
</svg>
